<?xml version="1.0" encoding="utf-8"?>
<!-- Generator: $$$/GeneralStr/196=Adobe Illustrator 27.6.0, SVG Export Plug-In . SVG Version: 6.00 Build 0)  -->
<svg version="1.1" id="Réteg_1" xmlns="http://www.w3.org/2000/svg" xmlns:xlink="http://www.w3.org/1999/xlink" x="0px" y="0px"
	 viewBox="0 0 2880 2880" enable-background="new 0 0 2880 2880" xml:space="preserve">
<g>
	<path fill="#B5E604" d="M2435.7,944.3c0,103.3-44,205.8-129.2,277.4L2013,1468.3l-581.8,488.6l-106.2-67.1
		c-9.1,92-46.1,175.8-102.5,242.4c-26,30.6-63.8,67-116.1,97.5c-39.4,23-74.2,35.2-94.3,41.4c-25.5,7.8-71.1,19.2-129.2,19.2
		c-162.4,0-304.4-87.3-381.8-217.5c-21.6-37.1-47.5-92.8-57.8-164.3c-4.1-28.3-5-54.2-4.3-77c116.7-93.5,233.4-187.1,350-280.6
		c179.3-150.6,358.6-301.3,538-451.9l43.8-36.6l470-394.9c153.1-128.4,381.3-108.7,510,44.5C2407.9,779.7,2435.7,862.2,2435.7,944.3
		z"/>
	<path fill="#4FD00A" d="M1327.1,1098.9l43.8-36.6l642.1,406l257.2,162.8c169,106.8,219.4,330.5,112.6,499.5
		c-68.9,108.9-186.5,168.3-306.4,168.3c-66.1,0-132.9-18.1-193-56l-452.1-286.1l-106.2-67.1"/>
	<path opacity="0.45" fill="#CEE807" d="M1327.1,1026.7v819.7c0,14.6-0.6,29.2-2.1,43.4c-9.1,92-46.1,175.8-102.5,242.4
		c-26,30.6-63.8,67-116.1,97.5c-39.3,23-74.1,35.2-94.3,41.3c-25.5,7.8-71.1,19.2-129.2,19.2c-162.4,0-304.4-87.3-381.8-217.5
		c-39.5-66.3-62.2-143.6-62.2-226.4v-819.7c0-84.2,23.5-163,64-230.1c0.2-0.2,0.2-0.2,0.2-0.2C581.3,668.2,722,582.6,883,582.6
		c122.7,0,233.8,49.8,314,130.1C1277.3,792.9,1327.1,904.1,1327.1,1026.7z"/>
</g>
</svg>
